<svg t="1722083463560" class="icon" viewBox="0 0 1024 1024" version="1.1" xmlns="http://www.w3.org/2000/svg" p-id="4347" width="200" height="200"><path d="M1023.5 348.6V158c0-51.8-42.2-94-94-94H798V30c0-16.5-13.5-30-30-30s-30 13.5-30 30v34H286V30c0-16.5-13.5-30-30-30s-30 13.5-30 30v34H94.5c-51.8 0-94 42.2-94 94v190.6c-0.3 1.8-0.5 3.6-0.5 5.4 0 1.8 0.2 3.6 0.5 5.4V930c0 51.8 42.2 94 94 94h835c51.8 0 94-42.2 94-94V359.4c0.3-1.8 0.5-3.6 0.5-5.4 0-1.8-0.2-3.6-0.5-5.4z m-60 581.4c0 18.7-15.3 34-34 34h-835c-18.7 0-34-15.3-34-34V384h903v546z m0-606h-903V158c0-18.7 15.3-34 34-34H226v38c0 16.5 13.5 30 30 30s30-13.5 30-30v-38h452v38c0 16.5 13.5 30 30 30s30-13.5 30-30v-38h131.5c18.7 0 34 15.3 34 34v166z" fill="#707070" p-id="4348"></path><path d="M405.3 480m-30 0a30 30 0 1 0 60 0 30 30 0 1 0-60 0Z" fill="#707070" p-id="4349"></path><path d="M618.7 480m-30 0a30 30 0 1 0 60 0 30 30 0 1 0-60 0Z" fill="#707070" p-id="4350"></path><path d="M832 480m-30 0a30 30 0 1 0 60 0 30 30 0 1 0-60 0Z" fill="#707070" p-id="4351"></path><path d="M192 608m-30 0a30 30 0 1 0 60 0 30 30 0 1 0-60 0Z" fill="#707070" p-id="4352"></path><path d="M405.3 608m-30 0a30 30 0 1 0 60 0 30 30 0 1 0-60 0Z" fill="#707070" p-id="4353"></path><path d="M618.7 608m-30 0a30 30 0 1 0 60 0 30 30 0 1 0-60 0Z" fill="#707070" p-id="4354"></path><path d="M832 608m-30 0a30 30 0 1 0 60 0 30 30 0 1 0-60 0Z" fill="#707070" p-id="4355"></path><path d="M192 736m-30 0a30 30 0 1 0 60 0 30 30 0 1 0-60 0Z" fill="#707070" p-id="4356"></path><path d="M405.3 736m-30 0a30 30 0 1 0 60 0 30 30 0 1 0-60 0Z" fill="#707070" p-id="4357"></path><path d="M618.7 736m-30 0a30 30 0 1 0 60 0 30 30 0 1 0-60 0Z" fill="#707070" p-id="4358"></path><path d="M832 736m-30 0a30 30 0 1 0 60 0 30 30 0 1 0-60 0Z" fill="#707070" p-id="4359"></path><path d="M192 864m-30 0a30 30 0 1 0 60 0 30 30 0 1 0-60 0Z" fill="#707070" p-id="4360"></path><path d="M405.3 864m-30 0a30 30 0 1 0 60 0 30 30 0 1 0-60 0Z" fill="#707070" p-id="4361"></path><path d="M618.7 864m-30 0a30 30 0 1 0 60 0 30 30 0 1 0-60 0Z" fill="#707070" p-id="4362"></path></svg>